<?xml version="1.0" encoding="utf-8"?>

<!DOCTYPE svg PUBLIC "-//W3C//DTD SVG 1.1//EN" "http://www.w3.org/Graphics/SVG/1.1/DTD/svg11.dtd">
<svg version="1.1" id="Layer_1" xmlns="http://www.w3.org/2000/svg" xmlns:xlink="http://www.w3.org/1999/xlink" x="0px" y="0px"
	 viewBox="-73 -51 2073 2444" enable-background="new -73 -51 2073 2444" xml:space="preserve">
<g>
	<path stroke="#000000" stroke-width="0.0938" d="M662.97,5.48c35.78-2.61,71.8,0,107.15,5.85c24.14,2.81,47.51,9.68,70.64,16.9
		c-0.28,0.45-0.83,1.34-1.11,1.79c47.93,17.59,92.44,45.57,126.87,83.5c8.96,9.38,16.63,20.02,22.25,31.73
		c13.94,28.46,19.25,60.3,21.16,91.69c1.78,33.39-0.59,67.16-8.52,99.7c-3.44,13.59-7.94,27-14.64,39.35
		c-8.04,15.44-19.53,28.75-31.72,41.04c-47.88,46.69-110.28,76.3-174.8,91.98c-6.09,1.49-12.21,2.84-18.35,4.09
		c0.05,6.01,0.33,12.13-0.81,18.05c-1.86,6.37-6.86,11.87-13.1801,14.03c-20.09,7.48-41.6,10.39-62.95,10.82
		c-21.7401,0.12-43.58-1.84-64.82-6.52c-9.66-2.62-21.04-6.05-25.67-15.84c-2.67-7.48-3.02-16.22,0.22-23.58
		c-6.25-1.25-12.45-2.71-18.64-4.23c-40.53-10-80.1-24.08-117.64-42.37c-32.73-15.89-64.02-35.29-90.97-59.86
		c-3.61-3.75-7.61-7.26-10.2-11.84c-14.9-24.73-24.68-52.36-30.06-80.67c-5.68-30.35-6.51-61.66-1.86-92.2
		c4.08-26.86,12.82-53,25.72-76.9c3.66-5.62,7.25-11.32,11.33-16.64c28.61-31.57,65.8-53.86,104.02-71.88
		C528.03,25.12,595.13,8.27,662.97,5.48 M662.08,24.32c-15.87,0.7-31.72,2.12-47.43,4.5c8.03,10.5,15.7599,21.22,23.22,32.13
		c21.75,31.58,42.37,63.91,63.38,95.99c6.88-23.5,14.19-46.88,22.68-69.85c7.55-20.42,15.77-40.67,26.28-59.77
		C721.04,23.36,691.45,22.09,662.08,24.32 M825.07,44.87c-14.83,18.23-26.55,38.71-38.22,59.03
		c-19.33,34.65-37.3199,70.05-53.77,106.16c-3.97,10.04-10.64,20.35-21.57,23.56c-13.6,3.8-27.88-5.58-33.45-17.79
		c-9.31-14.01-20.44-26.69-31.31-39.48c-26.18-30.12-53.55-59.21-82.01-87.18c-13.62-13.14-27.37-26.2-42.24-37.94
		c-28.23,9.7-55.73,21.72-81.63,36.6c-22.24,12.97-43.67,27.93-61.2,46.94c11.07,39.53,18.08,80.18,21.27,121.1
		c3.56,47.87,1.62,96.5-9.78,143.27c13.18,11.07,27.52,20.69,42.27,29.53c33.7,19.98,69.93,35.44,107.14,47.55
		c41.58,13.34,84.66,22.52,128.3,25.21c21.37,1.08,42.93,1.03,64.12-2.34c54.42-8.09,107.96-25.25,155.09-53.97
		c25.65-15.8,49.67-34.8,68.82-58.18c9.68-11.61,16.97-25.14,21.75-39.47c5.39-15.98,8.5699-32.63,10.67-49.34
		c4.35-37.5,3.33-75.96-5.93-112.68c-4.7-17.77-11.3-35.51-22.77-50.1c-12.12-14.5-25.71-27.75-40.51-39.49
		C891.81,73.33,859.23,56.54,825.07,44.87z"/>
	<path fill="#FFFFFF" stroke="#FFFFFF" stroke-width="0.0938" d="M662.08,24.32c29.37-2.23,58.96-0.96,88.13,3
		c-10.51,19.1-18.73,39.35-26.28,59.77c-8.49,22.97-15.8,46.35-22.68,69.85c-21.01-32.08-41.63-64.41-63.38-95.99
		c-7.46-10.91-15.19-21.63-23.22-32.13C630.36,26.44,646.21,25.02,662.08,24.32z"/>
	<path fill="#FFFFFF" stroke="#FFFFFF" stroke-width="0.0938" d="M825.07,44.87c34.16,11.67,66.74,28.46,95.04,50.99
		c14.8,11.74,28.39,24.99,40.51,39.49c11.47,14.59,18.07,32.33,22.77,50.1c9.26,36.72,10.28,75.18,5.93,112.68
		c-2.1,16.71-5.28,33.36-10.67,49.34c-4.78,14.33-12.07,27.86-21.75,39.47c-19.15,23.38-43.17,42.38-68.82,58.18
		c-47.13,28.72-100.67,45.88-155.09,53.97c-21.19,3.37-42.75,3.42-64.12,2.34c-43.64-2.69-86.72-11.87-128.3-25.21
		c-37.21-12.11-73.44-27.57-107.14-47.55c-14.75-8.84-29.09-18.46-42.27-29.53c11.4-46.77,13.34-95.4,9.78-143.27
		c-3.19-40.92-10.2-81.57-21.27-121.1c17.53-19.01,38.96-33.97,61.2-46.94c25.9-14.88,53.4-26.9,81.63-36.6
		c14.87,11.74,28.62,24.8,42.24,37.94c28.46,27.97,55.83,57.06,82.01,87.18c10.87,12.79,22,25.47,31.31,39.48
		c5.57,12.21,19.85,21.59,33.45,17.79c10.93-3.21,17.6-13.52,21.57-23.56c16.45-36.11,34.44-71.51,53.77-106.16
		C798.52,83.58,810.24,63.1,825.07,44.87 M847.51,185.7c-11.65,3.12-20.47,12.7-25.52,23.32c-7.44,15.73-8.37,34.27-3.36,50.86
		c3.51,11.43,10.39,22.36,20.86,28.55c8.5,5.09,19.48,5.83,28.48,1.61c9.33-4.14,16.19-12.39,20.59-21.41
		c6.83-14.22,8.06-30.78,4.76-46.09c-2.93-12.59-9.43-25.04-20.41-32.37C865.6,185.13,856.1,183.4,847.51,185.7 M496.68,216.06
		c0.58,6.24,1.09,12.49,1.68,18.73c17.37-1.05,35.08,1.11,51.58,6.73c-17.47,0.81-34.79,4.6-51,11.17
		c2.41,5.79,5.02,11.49,7.54,17.23c12.31-4.88,25.3-8.07,38.49-9.27c15.52-1.38,31.75,0.51,45.69,7.82
		c16.53,9.44,32.82,19.31,49.4,28.67c-11.28-13.76-22.97-27.18-34.4-40.82c-12.28-14.82-29.04-25.52-47.11-31.84
		C538.78,217.57,517.57,214.8,496.68,216.06 M760.16,362.01c-8.3799,4.47-17.85,6.52-27.25,7.29c-22.35,1.43-44.61-3.16-65.87-9.69
		c-16.83-4.96-32.57-12.76-48.63-19.66c12.65,22.46,24.34,45.79,41.34,65.4c10.1,11.65,22.4,22.52,37.7,26.39
		c12.12,3.2,25.28,0.23,35.51-6.79c15.38-10.31,25.63-26.2,35.4-41.54c4.56-7.59,10.24-14.42,15.41-21.58
		c5.92-7.97,11.91-15.88,17.76-23.9C787.6,345.73,773.99,354.06,760.16,362.01z"/>
	<path stroke="#000000" stroke-width="0.0938" d="M847.51,185.7c8.59-2.3,18.09-0.57,25.4,4.47c10.98,7.33,17.48,19.78,20.41,32.37
		c3.3,15.31,2.07,31.87-4.76,46.09c-4.4,9.02-11.26,17.27-20.59,21.41c-9,4.22-19.98,3.48-28.48-1.61
		c-10.47-6.19-17.35-17.12-20.86-28.55c-5.01-16.59-4.08-35.13,3.36-50.86C827.04,198.4,835.86,188.82,847.51,185.7 M849.48,194.81
		c-6.33,1.79-11.35,6.48-15.19,11.64c-6.8,9.75-9.68,21.81-9.53,33.59c0.4,11.95,3.73,24.27,11.56,33.54
		c4.82,5.77,11.89,10.25,19.64,9.94c8.33-0.28,15.6-5.74,20.25-12.35c8.42-11.93,10.92-27.27,8.97-41.55
		c-1.6-10.69-5.9-21.4-13.89-28.91C865.58,195.35,857.17,192.39,849.48,194.81z"/>
	<path fill="#FFFFFF" stroke="#FFFFFF" stroke-width="0.0938" d="M849.48,194.81c7.69-2.42,16.1,0.54,21.81,5.9
		c7.9901,7.51,12.29,18.22,13.89,28.91c1.95,14.28-0.55,29.62-8.97,41.55c-4.65,6.61-11.92,12.07-20.25,12.35
		c-7.75,0.31-14.82-4.17-19.64-9.94c-7.83-9.27-11.16-21.59-11.56-33.54c-0.15-11.78,2.73-23.84,9.53-33.59
		C838.13,201.29,843.15,196.6,849.48,194.81 M844.23,199.06c-7.55,5.77-11.58,14.94-13.66,23.98c-3.16,14.8-1.69,31.09,6.2,44.22
		c3.84,6.09,9.82,11.66,17.34,12.2c6.99,0.61,13.36-3.6,17.5-8.91c6.6-8.44,9.4-19.24,9.99-29.79c-6.13-3.02-13.05-1.28-19.54-1.4
		c-4.79-0.31-3.83-6.04-3.16-9.32c3.62-7.64,11.41-12.03,18.15-16.6c-2.87-6.72-7.35-13.24-14.11-16.49
		C856.97,193.89,849.45,194.98,844.23,199.06z"/>
	<path stroke="#000000" stroke-width="0.0938" d="M844.23,199.06c5.22-4.08,12.74-5.17,18.71-2.11c6.76,3.25,11.24,9.77,14.11,16.49
		c-6.74,4.57-14.53,8.96-18.15,16.6c-0.67,3.28-1.63,9.01,3.16,9.32c6.49,0.12,13.41-1.62,19.54,1.4
		c-0.59,10.55-3.39,21.35-9.99,29.79c-4.14,5.31-10.51,9.52-17.5,8.91c-7.52-0.54-13.5-6.11-17.34-12.2
		c-7.89-13.13-9.36-29.42-6.2-44.22C832.65,214,836.68,204.83,844.23,199.06z"/>
	<path stroke="#000000" stroke-width="0.0938" d="M1707.16,217.12c4.5-5.62,11.5699-9.4,18.88-8.91c5.62-0.1,11.02,3,14,7.72
		c4.02,6.21,4.59,13.88,4.71,21.08c-0.24,15.48-3.29,30.72-5.54,46c-0.5499,3.33-0.4299,6.7-0.5699,10.06
		c-1.2001,7.45,1.88,14.68,1.6799,22.15c12.7401-11.87,26.27-23.71,42.75-30.02c5.62-2.3,11.67-2.98,17.67-3.58
		c9.27-3.27,18.87-5.81,28.74-6.24c3.8201-3.21,8.39-5.76,13.4401-6.21c9.9299-1.25,20.2799,4.6,24.12,13.88
		c4.76,10.29,0.4199,22.61-7.16,30.29c5.75,3.45,10.5599,8.85,12.01,15.54c2.1,8.25-0.7001,17.29-6.86,23.11
		c8.84,8.34,9.38,23.48,1,32.32c5.03,3.72,9.1799,9.14,9.5699,15.59c0.7101,5.06-1.64,9.7-3.5499,14.2
		c-3.01,2.36-5.88,5.05-9.5,6.45c-2.8401,1.2-5.99,1.22-8.92,2.04c-9.7,3.26-19.86,4.82-29.75,7.3
		c-4.92,4.66-9.03,10.19-13.99,14.86c-17.09,17.01-36.59,32.93-60.09,39.85c-2.37,5.06-5.38,9.86-9.25,13.91
		c-2.9701,2.79-3.91,6.88-5.5801,10.44c-7.9,17.89-17.34,35.03-26.9299,52.05c-9.87,18.88-21.4401,36.83-33.8,54.17
		c-26.92,40.69-55.52,80.25-85.33,118.87c-4.27,5.65-8.92,11.03-12.78,16.9901c-17.37,25.48-37.04,49.4-58.66,71.39
		c-11.14,10.56-20.77,22.57-31.51,33.53c-6.7799,6.98-13.3099,14.24-20.5,20.8c-1.47,15.14-7.87,30.17-19.47,40.3
		c-13.48,12.02-32.36,16.27-50.03,14.92c-17.1-1.11-33.5699-6.87-48.76-14.58c0.2101-0.82,0.62-2.46,0.8201-3.29
		c-0.48,0.05-1.4501,0.14-1.9301,0.1801c0.92,3.2599,1.8201,6.53,2.67,9.8199c-47.42-7.75-94.36-18.29-140.73-30.89
		c-37.4-10.17-74.4601-21.62-110.9601-34.69c-22.5599-8.14-44.96-16.78-66.73-26.87c-14.83-6.9901-29.71-14.29-42.7499-24.33
		c-4.96-3.68-9.04-8.43-11.9301-13.88c-3.2599,2.85-6.6299,5.59-10.1,8.19c3.26,26.45,3.1,53.28,0.06,79.75
		c-2.35,19.83-6.25,39.55-12.63,58.51c-7.75,20.75-14.06,42-20.25,63.26c-11.49,40.5399-22.23,81.36-29.82,122.83
		c-1.47,9.92-3.97,19.92-2.66,30.01c1.41,19.5701-0.27,40.4401-10.69,57.5701c-8.13,13.62-21.89,22.7999-36.3,28.74
		c-6.62,2.7899-13.42,5.09-20.23,7.34c-8.71,2.26-17.66,3.4-26.56,4.54c-6.17,0.74-12.37,1.2799-18.56,1.83
		c-0.05,7.02,0,14.08-0.6,21.09c-1.64,12.61-11.02,23.98-23.07,28.03c-38.93,14.36-81.12,17.64-122.3,15.37
		c-20.93-1.25-41.83-3.71-62.4-7.84c-12.11-2.74-24.42-6.3301-34.61-13.6901c-7.26-5.12-12.25-13.25-13.4-22.0699
		c-1.41-10.59-1.86-22.36,4.56-31.53c-6.73-0.6801-13.42-1.63-20.11-2.48c-19.47-2.85-39.11-5.24-58.11-10.47
		c-11.16-3.53-21.3-10.79-27.5-20.8c-4.97-7.96-6.89-17.35-8-26.54c-2.06-19.2999-2.59-38.72-4.1-58.0699
		c-1.86-24.87-4.45-49.8201-10.5-74.0701c-6.87-26.49-12.97-53.1699-18.26-80.0099c-4.87-25.44-9.34-51.05-10.83-76.94
		c-0.42-11.58-0.69-23.4,2.61-34.63c-10.19-0.78-20.23-2.95-29.88-6.31c-14.83,30.15-31.87,59.17-49.64,87.67
		c-26.89,42.78-55.58,84.47-86.6,124.37c-11.57,14.67-23.35,29.23-36.46,42.5701c-5.3,5.6-12.21,9.49-16.82,15.7799
		c1.85,3.0901,3.64,6.26,4.8,9.7001c0.81,2.0499,1.35,4.46,3.32,5.77c13.93,10.2899,25.35,23.4199,37.49,35.6599
		c29.53,29.4401,59.91,58.03,90.43,86.4601c26.64,24.71,53.37,49.33,80.51,73.49c4.53,4.14,9.8,7.64,13.25,12.83
		c1.91,2.77,2.8,6.54,6.21,7.9401c3.84,2.85,8.79,2.11,13.22,3.0299c9.95,1.8,19.41,5.6901,28.22,10.6101
		c4.23-9.4901,9.4-18.52,13.84-27.92c4.02-7.72,11.48-12.96,19.14-16.67c12.1-5.72,25.24-8.75,38.35-11.15
		c-2.52,9.0701-2.25,18.65-1.34,27.9401c1.15,11.15,5.55,22.09,13.29,30.3199c12.05,12.6801,29.1,18.92,45.74,22.9501
		c19.64,4.41,39.68,6.7899,59.72,8.48c46.49,3.49,94.33,0.5699,138.45-15.49c20.55-6.38,35.53-26.49,36.75-47.85
		c0.89-3,0.46-6.15,0.47-9.2101c5.13,3.0601,10.93,4.8201,16.07,7.9c7.66,4.3,14.9,9.72,20.06,16.9301
		c3.56,4.77,5.74,10.37,8.07,15.8199c1.57,3.74,1.61,7.86,2.42,11.8c10.89,45.9,15.65,93.1,16.38,140.21
		c-0.02,15.95,0.21,31.9401-1.11,47.85c-1.92,13.63-6.1801,26.98-12.98,38.98c12.71,10.52,22.12,24.4701,29.43,39.14
		c9.41,19.3501,15.62,40.0901,20.29,61.05c10.11,45.96,13.56,93.08,15.28,140.02c2.91,93.4399-2.15,186.9199-8.81,280.1099
		c-6.21,84.8401-14.42,169.52-22.72,254.1802c-3.26-0.3-6.52-0.5601-9.77-0.8801c-2.98-0.3799-5.96-0.6399-8.94-0.9399
		c6.17-62.47,12.23-124.95,17.49-187.5c7.1-85.1799,12.98-170.51,14.58-255.98c0.77-51.37,0.17-102.84-4.68-154.02
		c-2.69-27.37-6.53-54.71-13.24-81.4c-4.34-16.75-9.73-33.34-17.65-48.76c-5.63-11-12.8-21.34-22.13-29.52
		c-6.64,7.8201-14,14.9701-20.84,22.6101c-13.9,15.37-28.04,30.7-44.54,43.35c-18.38,14.4199-39.92,24.9399-62.85,29.6799
		c-10.02,51.79-15.23,104.37-18.47,156.98c-2.91,47.63-4.27,95.3501-4.6,143.0601c-0.01,16.16-0.57,32.3301-0.1,48.5
		c0.44,103.7,4.44,207.3701,10.16,310.9199c-2.6,0.1401-5.2,0.3-7.8,0.5c-3.65,0.1802-7.31,0.3401-10.96,0.5701
		c-5.66-103.6699-9.71-207.46-10.16-311.28c-0.22-12.05-0.29-24.0999,0.06-36.14c0.13-54.87,1.63-109.75,5.12-164.5199
		c3.26-48.8501,7.99-97.7101,17.21-145.8401c-13.6801,0.7001-27.38-0.0399-41.04-0.75c-17.63-1.12-33.86-9.74-46.87-21.3199
		c-5.2-4.52-10.16-9.33-14.74-14.48c-2.97,9.12-7.1,17.85-12.43,25.84c1.93,7.84,3.72,15.72,5.24,23.66
		c9.19,48.5299,12.09,97.99,13.46,147.2899c1.31,51.04,0.24,102.1001-1.71,153.1101c-4.68,116.72-14.65,233.1399-26.05,349.3599
		c-3.51-0.3198-7.02-0.6599-10.52-0.99c-2.74-0.3098-5.48-0.5798-8.22-0.8499C563.3,2264,573.67,2141.1599,577.94,2018.02
		c1.78-54.65,2.38-109.38-0.19-164.02c-2.3-44.98-6.14-90.17-16.94-134.01c-5.02-19.46-11.44-38.78-21.65-56.1899
		c-7.68-13.12-17.96-24.87-30.64-33.37c-9.93-6.79-21-11.6101-32.1-16.13c-9.92-4.0901-21.13-6.38-31.69-3.4401
		c-13,3.49-22.97,13.54-30.4,24.3201c-11.48,16.9299-18.67,36.33-24.5,55.8199c-12.26,42.34-18.05,86.25-22.2,130.04
		c-4.68,52.1799-6.49,104.58-6.63,156.95c-0.43,101.1499,4.56,202.28,12.62,303.1001c2.96,35.97,6.29,71.9299,10.6,107.78
		c-2.91,0.2898-5.8,0.6699-8.69,1.0598c-3.34,0.4302-6.68,0.8-10.03,1.0601c-8.82-76.5901-14.66-153.51-18.68-230.5
		c-2.68-53.47-4.49-106.99-4.57-160.52c-0.26-51.64,0.92-103.2999,4.58-154.8199c3.52-47.42,8.85-94.88,19.99-141.17
		c4.91-19.27,10.54-38.52,19.18-56.48l0.29-0.64c8.71-18.98,20.93-37.54,39.35-48.28c3.12-2,5.25-5.13,7.71-7.83
		c-6.42-0.98-12.89-1.74-19.38-2.1c-1.43-0.0801-2.99-0.3201-4.21,0.6l-0.03-0.83c-2.42,0.0399-4.83,0.0699-7.24,0.12
		c-3.22-12.6801-5.43-25.63-6.08-38.6901c-7.34-5.71-12.95-13.21-19.93-19.27c-2.66-2.7999-4.09-6.5-6.67-9.35
		c-4.57-5.45-10.15-9.98-14.39-15.72c-15.1-19.55-23.25-44.05-24.56-68.6c-0.46-3.9,0.88-8.01-0.8-11.7001
		c-9.1-1.96-16.88-7.45-24.1-13.0499c-46.06-39.6901-96.28-74.2001-147.57-106.7201c-13.78-8.84-27.8-17.3199-41.52-26.24
		c-11.42-8.24-23.58-15.5399-34.1-24.95c-2.21-1.78-3.77-4.67-6.74-5.25c-2.72-0.8-5.45-1.58-8.14-2.48
		c-3.13,1.09-6.42,2.71-9.81,1.75c-15.69-3.16-31.63-9.4301-42.4-21.74c-9.29-10.41-13.21-24.78-12.38-38.54
		c1.09-20.05,9.23-39.08,20.02-55.77c0.56,0.01,1.67,0.03,2.23,0.04c-0.12-4.75-0.38-9.63,1.28-14.17
		c3.44-10.1699,8.21-19.8099,12.77-29.5c22.99-46.6699,48.2-92.2,73.57-137.6c21.11-37.61,42.59-75.01,64.69-112.04
		c11.23-18.44,22.13-37.13,34.76-54.67c-4.04-1.07-8.04-2.26-12.04-3.4301c5.45-14.89,11.87-29.46,20.18-42.98
		c20.59-34.07,50.46-62.06,84.62-82.27c13.12-7.58,26.77-14.66,41.53-18.43c10.68-2.77,22.02-3.02,32.75-0.38
		c2.82-8.57,11.7-12.49,19.41-15.61c18.68-6.93,38.31-10.82,57.8-14.7c24.59-4.66,49.33-8.51,74.16-11.67
		c0.1,0.77,0.3,2.3,0.41,3.06c15.19-2.01,30.4-3.96,45.63-5.64c0.23,0.42,0.68,1.27,0.9,1.69c0.95,1.83,2.04,3.59,3.15,5.34
		c-8.24,10.68-8.72,25.09-6.05,37.8c2.25,10.64,9.68,19.62,19.04,24.92c15.17,8.66,32.87,10.79,49.89,13.02
		c36.42,4.22,74.28,3.29,109.1-9.17c13.07-3.98,23.45-15.42,26.4901-28.69c1.2-4.95,0.86-10.08,1.15-15.13
		c0.3-7.79-0.67-16.03-5.12-22.64c-2.34-3.68-7.06-4.96-9.21-8.81c-2.65-4.24-2.02-10.11,1.38-13.75c3.36-3.73,8.27-5.43,12.98-6.76
		c12.46-3.08,25.49-4.02,38.27-2.7c4.37,0.33,8.55,1.97,12.97,1.92c35.44-0.16,71.12,0.18,106.18,6.01
		c22.8,3.73,45.01,11.58,64.56,23.99c9.06,5.29,16.47,12.83,23.65,20.38c6.71,7.35,13.03,15.08,18.66,23.31
		c4.4399,6.94,9.9199,14.58,8.2999,23.32c76.28,25.02,150.41,56.22,223.0601,90.28c27.0299,12.69,53.7799,25.99,80.2899,39.73
		c5.6801-5.37,13.26-7.69,20.5-10.0099c7.42-13.78,14.67-27.72,23.1001-40.94c21.8999-35.27,47.2999-68.2401,74.0199-99.97
		c55.8-65.83,117.4-126.43,180.0701-185.65c1.21-15.17,9.65-29.6,22.4399-37.89c3.27-2.22,6.91-3.8,10.49-5.46
		c-0.24-12.15,0.15-24.31,1.0601-36.42c0.96-10.47,2.03-21.08,5.51-31.07c1.89-4.97,0.52-10.36-0.13-15.44
		c-1.89-14.42-3.03-28.98-2.71-43.53c0.11-3.7,1.5699-7.2,1.6399-10.9c0.4401-13.12,1.51-26.28,4.4601-39.09
		C1699.0699,231.82,1701.88,223.68,1707.16,217.12 M1716.39,240.63c-2.76,9.88-3.87,20.14-4.5,30.35c3.36-0.4,6.76-0.27,10.08,0.46
		c0.98-5.85,1.88-11.72,2.65-17.6c0.95-9.01,2.52-18.32,0.03-27.21C1719.8101,229.7,1718.02,235.47,1716.39,240.63 M1817.76,301.73
		c-4.9301,2.49-10.14,5.43-12.65,10.6c14.98-2.02,28.9401-8.29,42.98-13.59c0.26-2.28-0.34-4.49-1.0499-6.62
		C1836.98,294.26,1827.01,297.18,1817.76,301.73 M1742.5,340.43c-0.39,6.3-1.71,12.87-6.08,17.7c-6.5,7.75-17.92,9.78-27.16,6.3
		c-2.86,16.08-3.17,32.49-3.26,48.78c6.58,1.2,13.37,2.06,19.4,5.22c17.0599,7.85,28.4199,25.98,28.7,44.69
		c15.84-7.54,29.6901-18.71,41.85-31.25c-6.5399-1.07-12.5-5.96-13.5399-12.7c-1.7001-7.85,2.0699-15.88,8.0299-20.92
		c-6.23-0.87-12.25-4.94-13.8899-11.24c-2.42-8.38,1.38-17.45,7.98-22.81c-6.55-3.39-9.8-11.28-8.23-18.38
		c1.4199-8.55,8.4099-14.79,15.74-18.66c-2.11-2.55-4.12-5.31-4.8101-8.61c-1.04-4.66-0.59-9.49-1.36-14.19
		C1769.01,313.07,1755.05,326.42,1742.5,340.43 M1710.36,311.02c0.3201,4.96,0.86,9.9,1.3201,14.85c3.1899-1.16,6.45-2.1,9.8099-2.7
		c0.09-3.71,0.08-7.42-0.17-11.12C1717.62,312.13,1713.95,311.79,1710.36,311.02 M1815.97,338.09c-7.14,2.05-14.62,4.32-20.21,9.44
		c16.28-0.84,32.1-5.32,47.88-9.15c2.7-0.14,2.8099-2.99,2.11-5.01c-1.51-0.79-3.28-0.13-4.83-0.07
		C1832.51,334.38,1824.15,335.86,1815.97,338.09 M1813.09,371.21c-6.22,1.89-12.75,3.91-17.5299,8.53
		c7.2599,0.23,14.3999-1.32,21.5099-2.59c8.75-1.78,17.4801-3.74,26.13-6.02c0.16-1.67,0.12-3.34-0.12-4.98
		C1832.95,366.85,1822.88,368.54,1813.09,371.21 M1822.52,404.69c-7.3101,1.82-14.9401,3.84-20.8201,8.8
		c14.9301-0.46,29.5-4.49,43.9401-8.03c-0.14-1.06-0.42-3.18-0.5701-4.24C1837.5,401.98,1829.9301,402.93,1822.52,404.69
		 M1471.86,677.99c-24.21,30.16-47.12,61.53-66.21,95.22c15.75-0.2401,32.2999,4.08,43.7899,15.35
		c13.92,13.59,20.7201,32.44,26.3401,50.62c36.53-38.94,70.26-80.43,102.85-122.69c24.08-31.45,47.41-63.5,69.59-96.32
		c21.87-32.61,43.05-65.8,60.98-100.77c-5.86,2.11-12.0199,3.56-18.2699,3.38c-10.3101,0.05-20.25-5.0601-26.8601-12.85
		c-5.5599-6.56-8.97-14.68-11-22.97C1589.47,547.47,1527.24,609.76,1471.86,677.99 M790.23,587.12c7.85,9.44,13.64,20.49,17.7,32.04
		c5.68,16.2,7.39,34.48,1.44,50.85c-4.14,11.83-12.36,21.94-22.39,29.33c-12.97,9.55-28.4,15.14-43.99,18.69
		c-15.07,3.28-30.53,5.52-45.98,4.5c-22.12-0.98-44.06-4.9301-65.33-10.98c-30.9-9.02-61.18-22.99-84.64-45.48
		c-14.32-13.78-25.44-31.12-30.79-50.35c-19.81,2.8701-39.58,6.03-59.23,9.8701c-18.38,3.85-37.03,7.36-54.47,14.5099
		c20.89,15.03,39.16,33.69,53.71,54.92c11.32,16.65,20.47,35.38,22.88,55.57c1.88,14.67-1.11,29.56-6.34,43.27
		c-6.48,16.64-17.78,31.07-31.28,42.62c-12.52,10.87-26.6,19.69-40.56,28.55c-1.48,0.7-1.76,2.4-2.18,3.8199
		c-1.9,7.56-1.55,15.41-1.5,23.14c0.91,20.19,4.01,40.2,7.46,60.09c5.36,29.9,11.96,59.56,19.41,89.0099
		c6.52,23.8301,9.84,48.4,11.94,72.98c2.11,22.9501,2.54,46.02,4.97,68.9401c0.99,9.51,3.64,20.03,11.89,25.87
		c8.03,6.35,18.49,7.58,28.19,9.58c35.72,6.37,71.83,10.24,107.93,13.61c52.51,4.65,105.23,7.64,157.95,6.9401
		c25.04-0.55,50.19-1.6801,74.89-6.12c6.65-1.0701,12.8701-3.75,19.1801-5.99c9.92-3.85,19.94-8.5601,27.3-16.47
		c5.06-5.4701,8.66-12.2101,10.59-19.39c3.35-12.3,3.42-25.23,2.24-37.8401c-0.64-5.46,0.38-10.8999,0.9901-16.3099
		c3.04-22.2001,8.07-44.0601,13.17-65.86C905.95,1027.6,917.7,984.42,932.13,942.1c7.96-20.2,12.24-41.66,14.88-63.15
		c5.92-50.37-0.27-102.22-18.5-149.59c-16.46-43.05-42.83-81.96-75.05-114.77c-9.61-8.98-18.72-18.55-28.94-26.84
		C813.5,584.14,801.51,585.49,790.23,587.12 M852.84,587.99c20.22,19.14,40.2599,38.64,57.97,60.18c3.91,4,9.04,6.47,13.92,9.06
		c13.16,6.33,27.61,10.88,42.34,10.52c21.63-1.6,42.22-9.09,63.56-12.46c-7.53-11.18-16.24-21.61-26.01-30.9
		c-6.88-6.8-15.45-11.5-23.95-15.94c-15.46-8.11-32.53-12.61-49.69-15.33C905.14,589.15,878.94,588.29,852.84,587.99 M341.47,658.63
		c-13.94,5.56-27.06,13.06-39.47,21.46c-32.27,21.83-59.38,51.8199-75.71,87.35c19.5,1.83,39.13,2.09,58.7,1.55
		c26.13-0.81,52.29-2.81,78.06-7.34c16.71-3.11,33.66-6.84,48.78-14.87c5.55-3.23,11.88-7.21,13.51-13.86
		c0.79-14.37-1.17-29.63-9.53-41.73c-5.73-9.1-14.32-15.73-21.64-23.42c-6.11-6.17-13.48-11.57-22.13-13.37
		C361.7,652.36,351.14,654.94,341.47,658.63 M1027.09,677.58c5.38,18.81,3.1901,38.94-2.5499,57.39
		c-6.16,19.9-16.09,38.4-27.3801,55.82c6.05,5.18,12.94,9.25,19.8701,13.13c15.1799,8.29,31.0399,15.26,47.01,21.85
		c40.9099,16.61,82.9199,30.38,125.3099,42.69c44.0701,12.67,88.66,23.56,133.72,32.08c-3.2699-14.96-5.4299-30.27-4.99-45.6
		c0.4601-17.41,4.8201-35.46,16.27-49.02c-22.03-11.23-44.24-22.1-66.61-32.64C1189.52,736.66,1109.58,703.35,1027.09,677.58
		 M294.06,799.83c-23.24,2.2-46.82,4.32-70.05,0.88c-11.65,17.34-22.38,35.28-33.13,53.18c-35.78,60.41-70.37,121.52-103.62,183.35
		c-12.75,24.1-25.72,48.12-36.95,72.98c6.84-3.1,13.37-6.8099,20.29-9.72c15.47-6.8199,32.43-10.92,49.4-9.74
		c13.87,0.77,27.4,4.76,39.94,10.62c9.05-8.09,16.96-17.3199,24.78-26.5601c18.29-21.97,35.31-44.95,51.87-68.2299
		c35-49.84,68.08-101.21,95.85-155.47c9.61-19.5,18.82-39.35,24.65-60.35C336.19,794.46,315.18,797.6,294.06,799.83 M1370.92,808.96
		c1.4399,11.9,4.12,23.63,5.22,35.59c2.28,20.98,0.0699,42.33-5.85,62.56c14.1699,5.19,29.73,8.25,44.7,4.95
		c9.65-2.08,18.79-7.44,24.34-15.74c4.39-6.53,6.99-14.37,7.3401-22.21c-7.74-17.9-18.64-34.54-32.49-48.32
		c-8.89-8.56-18.8501-16.33-30.2301-21.27C1379.3199,804.92,1374.9301,806.69,1370.92,808.96 M100.14,1142.86
		c-22.56,4.1-45.08,8.59-67.88,11.22c-5.73,12.17-10.7,25.28-10.26,38.9601c0.2,8.5699,3.5,17.1699,9.78,23.12
		c7.21,6.8199,16.74,10.48,26.22,12.84c2,0.76,3.83-0.61,5.57-1.4c18.9-9.9,36.33-22.6,51.65-37.4399
		c14.31-14.27,26.73-30.98,33.34-50.25c-1.16-1.9601-2.42-3.8401-3.73-5.6901C129.94,1137.14,115.05,1140.05,100.14,1142.86
		 M142.64,1203.59c-12.27,15.42-26.43,29.5601-43.07,40.26c8.64,6.65,17.76,12.65,26.68,18.9301
		c13.49,8.9,27.36,17.22,40.97,25.9399c51.07,32.37,101.16,66.62,147.21,105.9c5.57,5.04,11.81,9.4401,18.85,12.1801
		c4.02-10.0801,10.14-19.2001,16.85-27.67c6.83-8.35,14.54-16.4401,24.5-20.99c-35.71-31.15-70.33-63.51-105.04-95.77
		c-28.34-26.62-56.63-53.3099-83.85-81.09c-6.03-6.54-12.36-12.8-18.94-18.78C161.37,1177.54,152.45,1191.0601,142.64,1203.59
		 M376.32,1389.23c-13.09,9.5801-21.7,24.21-26.14,39.63c-1.34,4.63-0.37,9.49,0.01,14.2001c2.71,21.5699,11.28,43.0399,26.93,58.49
		c4.02-3.41,8.69-6.03,13.77-7.4801c2.04-8.98,7.95-16.8999,15.81-21.6399l-0.48-1.13c2.73-0.6101,5.62-1.1801,7.93-2.8401
		c0.97-4.01,1.65-8.11,3.16-11.96c2.27-6.1899,6.9-11.22,12.29-14.88c1-10.28,3.27-21.6,11.71-28.47c-5-4.8-11.39-8.6-14.43-15.0701
		c-1.82-3.89-1.19-8.36,0.73-12.0499c-7.92-4.1901-16.63-7.48-25.66-7.8C392.62,1379.4,383.87,1383.74,376.32,1389.23
		 M463.42,1393.25c1.18,2.37,2.16,4.85,3.37,7.23c4.18,0.85,8.52,0.39,12.76,0.17c-0.39-2.29-0.77-4.5801-1.15-6.85
		C473.42,1393.36,468.42,1393.13,463.42,1393.25 M510.28,1401.95c-0.67,1.8-1.36,3.5801-2.07,5.37
		c7.21,4.76,14.95,9.4301,23.72,10.38C525.84,1411.08,517.65,1406.9301,510.28,1401.95 M784.95,1418.33
		c-26.76,4.16-53.83,5.89-80.87,7.1001c-50.93,1.99-102.29,1.58-152.68-6.9701c-0.47,3.4-1.01,6.98-3.12,9.8301
		c-4.2401,6.02-12.08,8.64-19.22,7.88c-14.56-1.53-27.17-9.9701-38.66-18.4501c-4.04,1.0801-8.21,1.5-12.36,1.87
		c11.14,4.4701,21.02,11.86,32.84,14.63c11.53,3.64,23.96,3.85,35.09,8.8201c5.23,2.2799,10.47,5.6699,12.92,11.0499
		c2.54,5.26,1.28,11.85-2.55,16.16c-5.31,6.14-13.33,9.13-21.1801,10.23c-11.83,1.98-23.88,0.05-35.39-2.85
		c8.84,3.92,17.98,7.12,26.96,10.6801c6.72,2.75,14.01,4.62,19.68,9.3799c4.11,3.1801,7.4901,7.9,7.3701,13.3
		c0.0699,5.92-4.04,11.08-9.0601,13.8201c-6.98,3.87-15.16,5.5099-23.1,4.7999c5.16,4.1901,8.51,10.7001,8.14,17.4301
		c-0.35,4.25-3.62,7.6699-7.35,9.4099c-6.04,2.8501-12.87,3.38-19.45,3.3c3.89,2.33,7.52,5.7,8.42,10.36
		c0.52,5.08-1.33,10.6801-5.64,13.72c-3.6,2.8101-8.28,3.41-12.69,3.8301c37.51,14.85,71.33,39.1699,96.76,70.5399
		c11.08,13.8101,22.67,27.5701,37.21,37.88c8.74,6.1901,19.18,9.9601,29.92,10.36c15.02,0.52,30.16,1.77,45.1-0.5699
		c25.26-3.39,48.73-15.34,68.08-31.67c14.75-12.22,27.45-26.63,40.35-40.72c6.07-6.64,12.4901-12.96,18.16-19.95
		c12.61-15.1,18.9-34.9301,19.03-54.4601c1.64-52-1.8799-104.3099-12.27-155.34C819.74,1411.9399,802.24,1415.52,784.95,1418.33
		 M466.12,1434.92c-1.15,3.48-2.52,6.89-4.41,10.0499c3.78,2.14,7.71,4.03,11.74,5.65c1.13-3.63,2.56-7.16,4.24-10.5699
		C473.86,1438.27,470.01,1436.54,466.12,1434.92 M505.28,1459.78c10.81,2.33,22.31,4.4199,33.07,0.6699
		c-3.2-1.6699-6.7-2.62-10.24-3.23c-6.81-1.25-13.61-2.5499-20.3-4.34C506.98,1455.1801,506.14,1457.48,505.28,1459.78
		 M451.04,1467.37c-2.4,3.5699-5.01,7-7.85,10.24c5.5,3.63,11.09,7.14,16.91,10.24c1.4-2.49,2.91-4.91,4.65-7.1699
		c0.45-0.8501,2.11-2.2401,0.46-2.9C460.73,1473.98,455.94,1470.58,451.04,1467.37 M491.25,1503.41
		c6.47,2.1899,13.02,4.1899,19.73,5.5499c6.6,1.14,13.41,2.91,20.09,1.3501c-11.87-4.9501-23.99-9.26-35.91-14.0901
		C493.95,1498.66,492.66,1501.0601,491.25,1503.41 M431.33,1498.84c-2.12,3.6901-4.6,7.17-7.17,10.5801
		c3.65,3.0399,7.29,6.12,11.26,8.76c1.72-3.8601,4.03-7.4,6.55-10.78C438.62,1504.3,435.04,1501.47,431.33,1498.84 M402.41,1529.84
		c3.91,3.98,8.27,7.51,12.99,10.49c1.53-2.39,3.24-4.6599,4.96-6.8999c-4.09-2.8201-7.89-6.04-11.77-9.13
		C406.65,1526.27,404.58,1528.12,402.41,1529.84 M466.73,1532.95c11.21,3.5801,22.74,6.1801,34.41,7.7201
		c-10.76-3.75-21.74-7.0901-31.8-12.53C468.46,1529.72,467.59,1531.33,466.73,1532.95 M448.1,1553.9
		c-0.73,1.25-1.46,2.52-2.19,3.7999c9.08,4.14,18.4,7.9801,28.21,10.01C465.07,1563.89,456.01,1559.8199,448.1,1553.9
		 M417.07,1566.49c0.18,1.2,0.38,2.4401,0.58,3.6901c4.45,0.2,8.88,0.6799,13.29,1.2799
		C426.44,1569.46,421.67,1568.2,417.07,1566.49z"/>
	<path stroke="#000000" stroke-width="0.0938" d="M496.68,216.06c20.89-1.26,42.1,1.51,61.87,8.42
		c18.07,6.32,34.83,17.02,47.11,31.84c11.4301,13.64,23.1201,27.06,34.4,40.82c-16.58-9.36-32.87-19.23-49.4-28.67
		c-13.94-7.31-30.17-9.2-45.69-7.82c-13.1899,1.2-26.18,4.39-38.49,9.27c-2.52-5.74-5.13-11.44-7.54-17.23
		c16.21-6.57,33.53-10.36,51-11.17c-16.5-5.62-34.21-7.78-51.58-6.73C497.77,228.55,497.26,222.3,496.68,216.06z"/>
	<path fill="#FFFFFF" stroke="#FFFFFF" stroke-width="0.0938" d="M1716.39,240.63c1.63-5.16,3.42-10.93,8.26-14
		c2.49,8.89,0.9199,18.2-0.03,27.21c-0.77,5.88-1.67,11.75-2.65,17.6c-3.3199-0.73-6.72-0.86-10.08-0.46
		C1712.52,260.77,1713.63,250.51,1716.39,240.63z"/>
	<path fill="#FFFFFF" stroke="#FFFFFF" stroke-width="0.0938" d="M1817.76,301.73c9.25-4.55,19.22-7.47,29.28-9.61
		c0.71,2.13,1.3099,4.34,1.0499,6.62c-14.0399,5.3-28,11.57-42.98,13.59C1807.62,307.16,1812.83,304.22,1817.76,301.73z"/>
	<path fill="#FFFFFF" stroke="#FFFFFF" stroke-width="0.0938" d="M1742.5,340.43c12.55-14.01,26.51-27.36,43.37-36.07
		c0.77,4.7,0.3199,9.53,1.36,14.19c0.6901,3.3,2.7001,6.06,4.8101,8.61c-7.3301,3.87-14.3201,10.11-15.74,18.66
		c-1.5701,7.1,1.6799,14.99,8.23,18.38c-6.6,5.36-10.4,14.43-7.98,22.81c1.6399,6.3,7.6599,10.37,13.8899,11.24
		c-5.96,5.04-9.73,13.07-8.0299,20.92c1.0399,6.74,7,11.63,13.5399,12.7c-12.1599,12.54-26.01,23.71-41.85,31.25
		c-0.28-18.71-11.64-36.84-28.7-44.69c-6.03-3.16-12.8201-4.02-19.4-5.22c0.09-16.29,0.4-32.7,3.26-48.78
		c9.24,3.48,20.66,1.45,27.16-6.3C1740.79,353.3,1742.11,346.73,1742.5,340.43z"/>
	<path fill="#FFFFFF" stroke="#FFFFFF" stroke-width="0.0938" d="M1710.36,311.02c3.59,0.77,7.26,1.11,10.96,1.03
		c0.25,3.7,0.26,7.41,0.17,11.12c-3.36,0.6-6.62,1.54-9.8099,2.7C1711.22,320.92,1710.6801,315.98,1710.36,311.02z"/>
	<path fill="#FFFFFF" stroke="#FFFFFF" stroke-width="0.0938" d="M1815.97,338.09c8.1801-2.23,16.54-3.71,24.9501-4.79
		c1.5499-0.06,3.3199-0.72,4.83,0.07c0.7,2.02,0.59,4.87-2.11,5.01c-15.78,3.83-31.6,8.31-47.88,9.15
		C1801.35,342.41,1808.83,340.14,1815.97,338.09z"/>
	<path stroke="#000000" stroke-width="0.0938" d="M760.16,362.01c13.83-7.95,27.44-16.28,41.3701-24.08
		c-5.85,8.02-11.84,15.93-17.76,23.9c-5.17,7.16-10.85,13.99-15.41,21.58c-9.77,15.34-20.02,31.23-35.4,41.54
		c-10.23,7.02-23.39,9.99-35.51,6.79c-15.3-3.87-27.6-14.74-37.7-26.39c-17-19.61-28.69-42.94-41.34-65.4
		c16.06,6.9,31.8,14.7,48.63,19.66c21.26,6.53,43.52,11.12,65.87,9.69C742.31,368.53,751.78,366.48,760.16,362.01z"/>
	<path fill="#FFFFFF" stroke="#FFFFFF" stroke-width="0.0938" d="M1813.09,371.21c9.79-2.67,19.86-4.36,29.99-5.06
		c0.24,1.64,0.28,3.31,0.12,4.98c-8.6499,2.28-17.38,4.24-26.13,6.02c-7.11,1.27-14.25,2.82-21.5099,2.59
		C1800.34,375.12,1806.87,373.1,1813.09,371.21z"/>
	<path fill="#FFFFFF" stroke="#FFFFFF" stroke-width="0.0938" d="M1822.52,404.69c7.41-1.76,14.98-2.71,22.5499-3.47
		c0.15,1.06,0.4301,3.18,0.5701,4.24c-14.4401,3.54-29.01,7.57-43.9401,8.03C1807.58,408.53,1815.21,406.51,1822.52,404.69z"/>
	<path fill="#FFFFFF" stroke="#FFFFFF" stroke-width="0.0938" d="M1471.86,677.99c55.38-68.23,117.61-130.52,181.21-191.03
		c2.03,8.29,5.4401,16.41,11,22.97c6.6101,7.79,16.55,12.9,26.8601,12.85c6.25,0.18,12.4099-1.27,18.2699-3.38
		c-17.9299,34.97-39.11,68.16-60.98,100.77c-22.1799,32.82-45.51,64.87-69.59,96.32c-32.59,42.26-66.3199,83.75-102.85,122.69
		c-5.62-18.18-12.42-37.03-26.3401-50.62c-11.49-11.27-28.0399-15.59-43.7899-15.35C1424.74,739.52,1447.65,708.15,1471.86,677.99z"
		/>
	<path fill="#FFFFFF" stroke="#FFFFFF" stroke-width="0.0938" d="M576.05,505.83c6.19,1.52,12.39,2.98,18.64,4.23
		c-3.24,7.36-2.89,16.1-0.22,23.58c4.63,9.79,16.01,13.22,25.67,15.84c21.24,4.68,43.08,6.64,64.82,6.52
		c21.35-0.43,42.86-3.34,62.95-10.82c6.32-2.16,11.32-7.66,13.1801-14.03c1.14-5.92,0.86-12.04,0.81-18.05
		c6.14-1.25,12.2599-2.6,18.35-4.09c0.95,6.66,0.3,13.38,0.17,20.06c-0.34,6.25-2.7,12.14-5.65,17.58c4.86,6.75,6.36,15.23,6,23.4
		c-4.71,1.33-9.62,3.03-12.98,6.76c-3.4,3.64-4.03,9.51-1.38,13.75c2.15,3.85,6.8701,5.13,9.21,8.81
		c4.45,6.61,5.42,14.85,5.12,22.64c-0.29,5.05,0.05,10.18-1.15,15.13c-3.04,13.27-13.42,24.71-26.4901,28.69
		C718.28,678.29,680.42,679.22,644,675c-17.02-2.23-34.72-4.36-49.89-13.02c-9.36-5.3-16.79-14.28-19.04-24.92
		c-2.67-12.71-2.19-27.12,6.05-37.8c-1.11-1.75-2.2-3.51-3.15-5.34c-4.12-8.26-4.58-17.75-4.1299-26.81
		c0.55-6.87,3.02-13.56,7.23-19.03c-6.99-9.84-8.18-22.45-7-34.14C574.41,511.17,575.21,508.48,576.05,505.83 M593.29,581.1
		c1.2401,6.58,6.57,11.44,12.32,14.33c10.1,5.05,21.39,6.84,32.45,8.46c18.5,2.75,37.26,3.71,55.94,2.88
		c18.88-1.03,37.8-4.21,55.48-11.08c6.79-3.07,12.04-10.06,12.23-17.64c0.12-5.99,0.97-12.12-0.75-17.96
		c-18.25,8.05-38.07,12.0099-57.86,13.75c-26.46,2.23-53.14,0.25-79.25-4.32c-9.8199-1.84-19.58-4.55-28.42-9.27
		C591.47,566.44,592.14,574.19,593.29,581.1 M593.42,633.02c1.47,6.89,7.36,11.65,13.48,14.43c11.99,5.47,25.23,7.02,38.15,8.76
		c31.6,3.84,64.3,3.52,94.96-5.83c5.03-1.81,10.66-2.85,14.66-6.66c4.14-3.73,7.09-9.06,7.07-14.73c0.1-5.9,0.91-11.93-0.83-17.68
		c-20.21,8.71-42.16,12.76-64.05,14.09c-24.97,1.33-50.07-0.52-74.66-5.08c-9.21-1.83-18.35-4.43-26.67-8.89
		C591.42,617.81,592.07,625.9,593.42,633.02z"/>
	<path stroke="#000000" stroke-width="0.0938" d="M593.29,581.1c-1.15-6.91-1.82-14.66,2.14-20.85c8.84,4.72,18.6,7.43,28.42,9.27
		c26.11,4.57,52.79,6.55,79.25,4.32c19.79-1.7401,39.61-5.7,57.86-13.75c1.72,5.84,0.87,11.97,0.75,17.96
		c-0.19,7.58-5.44,14.57-12.23,17.64c-17.68,6.87-36.6,10.05-55.48,11.08c-18.68,0.83-37.44-0.13-55.94-2.88
		c-11.06-1.62-22.35-3.41-32.45-8.46C599.86,592.54,594.53,587.68,593.29,581.1z"/>
	<path fill="#FFFFFF" stroke="#FFFFFF" stroke-width="0.0938" d="M790.23,587.12c11.28-1.63,23.27-2.98,34.29,0.63
		c10.22,8.29,19.33,17.86,28.94,26.84c32.22,32.81,58.59,71.72,75.05,114.77c18.23,47.37,24.42,99.22,18.5,149.59
		c-2.64,21.49-6.92,42.95-14.88,63.15c-14.43,42.32-26.18,85.5-36.75,128.9301c-5.1,21.7999-10.13,43.6599-13.17,65.86
		c-0.61,5.41-1.63,10.85-0.9901,16.3099c1.1801,12.6101,1.11,25.54-2.24,37.8401c-1.93,7.1799-5.53,13.9199-10.59,19.39
		c-7.36,7.9099-17.38,12.62-27.3,16.47c-6.31,2.24-12.53,4.9199-19.1801,5.99c-24.7,4.4399-49.85,5.5699-74.89,6.12
		c-52.72,0.7-105.44-2.29-157.95-6.9401c-36.1-3.37-72.21-7.24-107.93-13.61c-9.7-2-20.16-3.23-28.19-9.58
		c-8.25-5.84-10.9-16.36-11.89-25.87c-2.43-22.92-2.86-45.99-4.97-68.9401c-2.1-24.58-5.42-49.1499-11.94-72.98
		c-7.45-29.45-14.05-59.11-19.41-89.0099c-3.45-19.89-6.55-39.9-7.46-60.09c-0.05-7.73-0.4-15.58,1.5-23.14
		c0.42-1.42,0.7-3.12,2.18-3.8199c13.96-8.86,28.04-17.6801,40.56-28.55c13.5-11.55,24.8-25.98,31.28-42.62
		c5.23-13.71,8.22-28.6,6.34-43.27c-2.41-20.19-11.56-38.92-22.88-55.57c-14.55-21.23-32.82-39.89-53.71-54.92
		c17.44-7.15,36.09-10.66,54.47-14.5099c19.65-3.84,39.42-7,59.23-9.8701c5.35,19.23,16.47,36.57,30.79,50.35
		c23.46,22.49,53.7401,36.46,84.64,45.48c21.27,6.05,43.21,10,65.33,10.98c15.45,1.02,30.91-1.22,45.98-4.5
		c15.59-3.55,31.02-9.14,43.99-18.69c10.03-7.39,18.25-17.5,22.39-29.33c5.95-16.37,4.24-34.65-1.44-50.85
		C803.87,607.61,798.08,596.56,790.23,587.12z"/>
	<path fill="#FFFFFF" stroke="#FFFFFF" stroke-width="0.0938" d="M852.84,587.99c26.1,0.3,52.3,1.16,78.14,5.13
		c17.16,2.72,34.23,7.22,49.69,15.33c8.5,4.44,17.07,9.14,23.95,15.94c9.77,9.29,18.48,19.72,26.01,30.9
		c-21.34,3.37-41.93,10.86-63.56,12.46c-14.73,0.36-29.18-4.19-42.34-10.52c-4.88-2.59-10.01-5.06-13.92-9.06
		C893.1,626.63,873.06,607.13,852.84,587.99z"/>
	<path stroke="#000000" stroke-width="0.0938" d="M593.42,633.02c-1.35-7.12-2-15.21,2.11-21.59c8.3199,4.46,17.46,7.06,26.67,8.89
		c24.59,4.56,49.69,6.41,74.66,5.08c21.89-1.33,43.84-5.38,64.05-14.09c1.7401,5.75,0.9301,11.78,0.83,17.68
		c0.02,5.67-2.93,11-7.07,14.73c-4,3.8101-9.63,4.85-14.66,6.66c-30.66,9.35-63.36,9.67-94.96,5.83
		c-12.92-1.7401-26.16-3.29-38.15-8.76C600.78,644.67,594.89,639.91,593.42,633.02z"/>
	<path fill="#FFFFFF" stroke="#FFFFFF" stroke-width="0.0938" d="M341.47,658.63c9.67-3.69,20.23-6.27,30.57-4.23
		c8.65,1.8,16.02,7.2,22.13,13.37c7.32,7.69,15.91,14.32,21.64,23.42c8.36,12.1,10.32,27.36,9.53,41.73
		c-1.63,6.65-7.96,10.63-13.51,13.86c-15.12,8.03-32.07,11.7599-48.78,14.87c-25.77,4.53-51.93,6.53-78.06,7.34
		c-19.57,0.54-39.2,0.28-58.7-1.55c16.33-35.53,43.44-65.52,75.71-87.35C314.41,671.69,327.53,664.19,341.47,658.63z"/>
	<path fill="#FFFFFF" stroke="#FFFFFF" stroke-width="0.0938" d="M1027.09,677.58c82.49,25.77,162.4301,59.08,240.65,95.7
		c22.37,10.54,44.58,21.41,66.61,32.64c-11.45,13.56-15.8099,31.61-16.27,49.02c-0.4399,15.33,1.7201,30.64,4.99,45.6
		c-45.0599-8.52-89.6499-19.41-133.72-32.08c-42.39-12.31-84.4-26.08-125.3099-42.69c-15.9701-6.59-31.8301-13.56-47.01-21.85
		c-6.9301-3.88-13.82-7.95-19.8701-13.13c11.29-17.42,21.22-35.92,27.3801-55.82C1030.28,716.52,1032.47,696.39,1027.09,677.58z"/>
	<path fill="#FFFFFF" stroke="#FFFFFF" stroke-width="0.0938" d="M294.06,799.83c21.12-2.23,42.13-5.37,63.03-9.06
		c-5.83,21-15.04,40.85-24.65,60.35c-27.77,54.26-60.85,105.63-95.85,155.47c-16.56,23.28-33.58,46.2599-51.87,68.2299
		c-7.82,9.2401-15.73,18.4701-24.78,26.5601c-12.54-5.86-26.07-9.85-39.94-10.62c-16.97-1.1801-33.93,2.92-49.4,9.74
		c-6.92,2.91-13.45,6.62-20.29,9.72c11.23-24.86,24.2-48.88,36.95-72.98c33.25-61.83,67.84-122.94,103.62-183.35
		c10.75-17.9,21.48-35.84,33.13-53.18C247.24,804.15,270.82,802.03,294.06,799.83z"/>
	<path fill="#FFFFFF" stroke="#FFFFFF" stroke-width="0.0938" d="M1370.92,808.96c4.01-2.27,8.3999-4.04,13.0299-4.44
		c11.38,4.94,21.3401,12.71,30.2301,21.27c13.85,13.78,24.75,30.42,32.49,48.32c-0.3501,7.84-2.9501,15.68-7.3401,22.21
		c-5.5499,8.3-14.6899,13.66-24.34,15.74c-14.97,3.3-30.53,0.24-44.7-4.95c5.9199-20.23,8.13-41.58,5.85-62.56
		C1375.04,832.59,1372.36,820.86,1370.92,808.96z"/>
	<path fill="#FFFFFF" stroke="#FFFFFF" stroke-width="0.0938" d="M100.14,1142.86c14.91-2.8099,29.8-5.72,44.69-8.64
		c1.31,1.85,2.57,3.73,3.73,5.6901c-6.61,19.27-19.03,35.98-33.34,50.25C99.9,1205,82.47,1217.7,63.57,1227.6
		c-1.74,0.79-3.57,2.16-5.57,1.4c-9.48-2.36-19.01-6.02-26.22-12.84c-6.28-5.9501-9.58-14.55-9.78-23.12
		c-0.44-13.6801,4.53-26.79,10.26-38.9601C55.06,1151.45,77.58,1146.96,100.14,1142.86z"/>
	<path fill="#FFFFFF" stroke="#FFFFFF" stroke-width="0.0938" d="M142.64,1203.59c9.81-12.5299,18.73-26.0499,24.16-41.09
		c6.58,5.98,12.91,12.24,18.94,18.78c27.22,27.78,55.51,54.47,83.85,81.09c34.71,32.26,69.33,64.62,105.04,95.77
		c-9.96,4.5499-17.67,12.64-24.5,20.99c-6.71,8.47-12.83,17.59-16.85,27.67c-7.04-2.74-13.28-7.14-18.85-12.1801
		c-46.05-39.28-96.14-73.53-147.21-105.9c-13.61-8.72-27.48-17.0399-40.97-25.9399c-8.92-6.28-18.04-12.28-26.68-18.9301
		C116.21,1233.15,130.37,1219.01,142.64,1203.59z"/>
	<path fill="#FFFFFF" stroke="#FFFFFF" stroke-width="0.0938" d="M515.99,1242.89c6.69,0.85,13.38,1.7999,20.11,2.48
		c-6.42,9.17-5.97,20.9401-4.56,31.53c1.15,8.8199,6.14,16.95,13.4,22.0699c10.19,7.36,22.5,10.9501,34.61,13.6901
		c20.57,4.13,41.47,6.59,62.4,7.84c41.18,2.27,83.37-1.01,122.3-15.37c12.05-4.05,21.43-15.42,23.07-28.03
		c0.6-7.01,0.55-14.0699,0.6-21.09c6.19-0.55,12.39-1.09,18.56-1.83c0.63,5.9199-0.16,11.86-0.01,17.7999
		c0,10.26-2.83,20.49-8.3799,29.14c5.06,9.41,5.93,20.4,5.17,30.89c-0.06,3.16-0.03,6.34,0.03,9.53
		c-1.22,21.36-16.2,41.47-36.75,47.85c-44.12,16.0599-91.96,18.98-138.45,15.49c-20.04-1.6901-40.08-4.0699-59.72-8.48
		c-16.64-4.03-33.69-10.27-45.74-22.9501c-7.74-8.23-12.14-19.1699-13.29-30.3199c-0.91-9.29-1.18-18.87,1.34-27.9401
		c1.64-6.1499,4.79-11.7799,8.64-16.8099c-3.66-6.55-5.91-13.83-6.72-21.28C511.4,1265.65,511.42,1253.67,515.99,1242.89
		 M528.01,1341.04c0.72,6.9099,3.21,13.7899,7.93,19c6.37,7.0599,15.21,11.22,24.03,14.37c10.7,3.73,21.89,5.83,33.08,7.5
		c14.53,2.26,29.16,3.86,43.85,4.76c42.87,2.5299,86.95-0.86,127.29-16.5c11.4-5.39,19.88-17.3,20.18-30.0701
		c0.03-8,1-16.0599-0.52-23.98c-5.98,4.61-13.3,6.73-20.31,9.21c-11.15,3.7101-22.55,6.66-34.1,8.8401
		c-48.08,9.0299-97.64,6.64-145.67-1.53c-18.2-3.3201-36.81-8.35-51.74-19.76C526.8,1321.26,527,1331.5699,528.01,1341.04z"/>
	<path stroke="#000000" stroke-width="0.0938" d="M528.01,1341.04c-1.01-9.4701-1.21-19.78,4.02-28.16
		c14.93,11.41,33.54,16.4399,51.74,19.76c48.03,8.17,97.59,10.5599,145.67,1.53c11.55-2.1801,22.95-5.13,34.1-8.8401
		c7.01-2.48,14.33-4.6,20.31-9.21c1.52,7.92,0.55,15.98,0.52,23.98c-0.3,12.77-8.78,24.6801-20.18,30.0701
		c-40.34,15.64-84.42,19.0299-127.29,16.5c-14.69-0.9-29.32-2.5-43.85-4.76c-11.19-1.67-22.38-3.77-33.08-7.5
		c-8.8199-3.15-17.66-7.3101-24.03-14.37C531.22,1354.83,528.73,1347.95,528.01,1341.04z"/>
	<path fill="#FFFFFF" stroke="#FFFFFF" stroke-width="0.0938" d="M376.32,1389.23c7.55-5.49,16.3-9.83,25.63-11
		c9.03,0.3201,17.74,3.61,25.66,7.8c-1.92,3.6899-2.55,8.1599-0.73,12.0499c3.04,6.4701,9.43,10.27,14.43,15.0701
		c-8.44,6.87-10.71,18.1899-11.71,28.47c-5.39,3.66-10.02,8.6901-12.29,14.88c-1.51,3.85-2.19,7.95-3.16,11.96
		c-2.31,1.66-5.2,2.23-7.93,2.8401l0.48,1.13c-7.86,4.74-13.77,12.6599-15.81,21.6399c-5.08,1.4501-9.75,4.0701-13.77,7.4801
		c-15.65-15.4501-24.22-36.92-26.93-58.49c-0.38-4.7101-1.35-9.5701-0.01-14.2001C354.62,1413.4399,363.23,1398.8101,376.32,1389.23
		z"/>
	<path fill="#FFFFFF" stroke="#FFFFFF" stroke-width="0.0938" d="M463.42,1393.25c5-0.12,10,0.11,14.98,0.55
		c0.38,2.2699,0.76,4.5599,1.15,6.85c-4.24,0.22-8.58,0.6799-12.76-0.17C465.58,1398.1,464.6,1395.62,463.42,1393.25z"/>
	<path fill="#FFFFFF" stroke="#FFFFFF" stroke-width="0.0938" d="M510.28,1401.95c7.37,4.9801,15.56,9.13,21.65,15.75
		c-8.77-0.95-16.51-5.62-23.72-10.38C508.92,1405.53,509.61,1403.75,510.28,1401.95z"/>
	<path fill="#FFFFFF" stroke="#FFFFFF" stroke-width="0.0938" d="M784.95,1418.33c17.29-2.8099,34.79-6.39,50.44-14.6
		c10.39,51.03,13.91,103.34,12.27,155.34c-0.1299,19.53-6.42,39.3601-19.03,54.4601c-5.67,6.99-12.09,13.3099-18.16,19.95
		c-12.9,14.09-25.6,28.5-40.35,40.72c-19.35,16.3301-42.82,28.28-68.08,31.67c-14.94,2.34-30.08,1.09-45.1,0.5699
		c-10.74-0.3999-21.18-4.1699-29.92-10.36c-14.54-10.3099-26.13-24.0699-37.21-37.88c-25.43-31.37-59.25-55.6899-96.76-70.5399
		c4.41-0.42,9.09-1.02,12.69-3.8301c4.31-3.0399,6.16-8.64,5.64-13.72c-0.9-4.66-4.53-8.03-8.42-10.36
		c6.58,0.08,13.41-0.45,19.45-3.3c3.73-1.74,7-5.1599,7.35-9.4099c0.37-6.73-2.98-13.24-8.14-17.4301
		c7.94,0.71,16.12-0.9299,23.1-4.7999c5.02-2.7401,9.13-7.9,9.0601-13.8201c0.12-5.4-3.26-10.12-7.3701-13.3
		c-5.67-4.7599-12.96-6.6299-19.68-9.3799c-8.98-3.5601-18.12-6.76-26.96-10.6801c11.51,2.9,23.56,4.83,35.39,2.85
		c7.85-1.1,15.8701-4.09,21.1801-10.23c3.83-4.3101,5.09-10.9,2.55-16.16c-2.45-5.38-7.69-8.77-12.92-11.0499
		c-11.1299-4.9701-23.56-5.1801-35.09-8.8201c-11.82-2.77-21.7-10.1599-32.84-14.63c4.15-0.37,8.32-0.7899,12.36-1.87
		c11.49,8.48,24.1,16.92,38.66,18.4501c7.14,0.76,14.98-1.86,19.22-7.88c2.11-2.8501,2.65-6.4301,3.12-9.8301
		c50.39,8.55,101.75,8.9601,152.68,6.9701C731.12,1424.22,758.19,1422.49,784.95,1418.33z"/>
	<path fill="#FFFFFF" stroke="#FFFFFF" stroke-width="0.0938" d="M466.12,1434.92c3.89,1.62,7.74,3.35,11.57,5.13
		c-1.68,3.4099-3.11,6.9399-4.24,10.5699c-4.03-1.62-7.96-3.51-11.74-5.65C463.6,1441.8101,464.97,1438.4,466.12,1434.92z"/>
	<path fill="#FFFFFF" stroke="#FFFFFF" stroke-width="0.0938" d="M505.28,1459.78c0.86-2.3,1.7-4.6,2.53-6.9
		c6.69,1.79,13.49,3.09,20.3,4.34c3.54,0.61,7.04,1.5601,10.24,3.23C527.59,1464.2,516.09,1462.11,505.28,1459.78z"/>
	<path fill="#FFFFFF" stroke="#FFFFFF" stroke-width="0.0938" d="M451.04,1467.37c4.9,3.21,9.69,6.61,14.17,10.41
		c1.65,0.6599-0.01,2.0499-0.46,2.9c-1.74,2.2599-3.25,4.6799-4.65,7.1699c-5.82-3.1-11.41-6.61-16.91-10.24
		C446.03,1474.37,448.64,1470.9399,451.04,1467.37z"/>
	<path fill="#FFFFFF" stroke="#FFFFFF" stroke-width="0.0938" d="M491.25,1503.41c1.41-2.35,2.7-4.75,3.91-7.1901
		c11.92,4.8301,24.04,9.14,35.91,14.0901c-6.68,1.5599-13.49-0.2101-20.09-1.3501C504.27,1507.6,497.72,1505.6,491.25,1503.41z"/>
	<path fill="#FFFFFF" stroke="#FFFFFF" stroke-width="0.0938" d="M431.33,1498.84c3.71,2.63,7.29,5.4601,10.64,8.5601
		c-2.52,3.38-4.83,6.9199-6.55,10.78c-3.97-2.64-7.61-5.7201-11.26-8.76C426.73,1506.01,429.21,1502.53,431.33,1498.84z"/>
	<path fill="#FFFFFF" stroke="#FFFFFF" stroke-width="0.0938" d="M402.41,1529.84c2.17-1.72,4.24-3.5699,6.18-5.5399
		c3.88,3.09,7.68,6.3099,11.77,9.13c-1.72,2.24-3.43,4.5099-4.96,6.8999C410.68,1537.35,406.32,1533.8199,402.41,1529.84z"/>
	<path fill="#FFFFFF" stroke="#FFFFFF" stroke-width="0.0938" d="M466.73,1532.95c0.86-1.62,1.73-3.23,2.61-4.8099
		c10.06,5.4399,21.04,8.78,31.8,12.53C489.47,1539.13,477.94,1536.53,466.73,1532.95z"/>
	<path fill="#FFFFFF" stroke="#FFFFFF" stroke-width="0.0938" d="M448.1,1553.9c7.91,5.9199,16.97,9.99,26.02,13.8099
		c-9.81-2.0299-19.13-5.87-28.21-10.01C446.64,1556.42,447.37,1555.15,448.1,1553.9z"/>
	<path fill="#FFFFFF" stroke="#FFFFFF" stroke-width="0.0938" d="M417.07,1566.49c4.6,1.71,9.37,2.97,13.87,4.97
		c-4.41-0.6-8.84-1.08-13.29-1.2799C417.45,1568.9301,417.25,1567.6899,417.07,1566.49z"/>
	<path fill="#FFFFFF" stroke="#FFFFFF" stroke-width="0.0938" d="M409.76,1589.25c1.22-0.92,2.78-0.6801,4.21-0.6
		c6.49,0.36,12.96,1.12,19.38,2.1c-2.46,2.7-4.59,5.83-7.71,7.83c-18.42,10.74-30.64,29.3-39.35,48.28c0.01-0.37,0.04-1.1,0.05-1.47
		c1.81-7.78,3.03-15.73,5.81-23.25C396.17,1610.3,402.33,1599.27,409.76,1589.25z"/>
	<path fill="#FFFFFF" stroke="#FFFFFF" stroke-width="0.0938" d="M444.73,1610.86c10.56-2.9399,21.77-0.65,31.69,3.4401
		c11.1,4.5199,22.17,9.34,32.1,16.13c12.68,8.5,22.96,20.25,30.64,33.37c10.21,17.4099,16.63,36.73,21.65,56.1899
		c10.8,43.84,14.64,89.03,16.94,134.01c2.57,54.64,1.97,109.37,0.19,164.02c-4.27,123.1399-14.64,245.98-26.79,368.5601
		c2.74,0.27,5.48,0.54,8.22,0.8499c-61.28,1.05-122.57,1.7-183.84,2.5c2.89-0.3899,5.78-0.77,8.69-1.0598
		c-4.31-35.8501-7.64-71.8101-10.6-107.78C365.56,2180.27,360.57,2079.1399,361,1977.99c0.14-52.37,1.95-104.77,6.63-156.95
		c4.15-43.79,9.94-87.7001,22.2-130.04c5.83-19.49,13.02-38.89,24.5-55.8199C421.76,1624.4,431.73,1614.35,444.73,1610.86z"/>
	<path fill="#FFFFFF" stroke="#FFFFFF" stroke-width="0.0938" d="M820.96,1649.9301c6.84-7.64,14.2-14.79,20.84-22.6101
		c9.33,8.1801,16.5,18.52,22.13,29.52c7.92,15.42,13.31,32.01,17.65,48.76c6.71,26.6901,10.55,54.03,13.24,81.4
		c4.85,51.1801,5.45,102.65,4.68,154.02c-1.6,85.47-7.48,170.8-14.58,255.98c-5.26,62.55-11.32,125.03-17.49,187.5
		c2.98,0.3,5.96,0.5601,8.94,0.9399c-61.2-0.8899-122.4-1.51-183.61-2.52c2.6-0.2,5.2-0.3599,7.8-0.5
		c-5.72-103.5498-9.72-207.22-10.16-310.9199c-0.47-16.1699,0.09-32.34,0.1-48.5c0.33-47.71,1.69-95.4301,4.6-143.0601
		c3.2401-52.61,8.45-105.1899,18.47-156.98c22.93-4.74,44.47-15.26,62.85-29.6799C792.92,1680.63,807.06,1665.3,820.96,1649.9301z"
		/>
	<path fill="#FFFFFF" stroke="#FFFFFF" stroke-width="0.0938" d="M591.38,1689.16c4.58,5.15,9.54,9.96,14.74,14.48
		c-5.17,12.84-12.63,24.75-21.93,35.02c-1.52-7.9401-3.31-15.8201-5.24-23.66C584.28,1707.01,588.41,1698.28,591.38,1689.16z"/>
</g>
</svg>
